# xmcd
#
# Track frame offsets:
# 150
# 13812
# 25557
# 41272
# 59010
# 77725
# 93887
# 110687
# 129437
# 149332
# 166712
# 182595
# 198782
# 214322
# 227745
#
# Disc length: 3270 seconds
#
#
# Revision: 2
# Processed by: cddbd v1.5.1PL2 Copyright (c) Steve Scherf et al.
# Submitted via: FreeRIP 2.945 
#
DISCID=c00cc40f
DTITLE=Bruno e Marrone - Sonhos, Amores e Sucessos - Disco III
DYEAR=2006
DGENRE=Sertanejo
TTITLE0=Credo em Cruz Ave-Maria
TTITLE1=Tá Liberado
TTITLE2=Ligação Urbana
TTITLE3=Vai dar Namoro
TTITLE4=Agora Vai
TTITLE5=Menina (Querida)
TTITLE6=Deixa
TTITLE7=Você não me Ensinou a te Esquecer
TTITLE8=Se não Tivesse Ido
TTITLE9=Inevitável
TTITLE10=Trânsito Parado
TTITLE11=Quer Casar Comigo
TTITLE12=Que Pescar que Nada
TTITLE13=A Culpa é Sua
TTITLE14=Choram as Rosas
EXTD=
EXTT0=
EXTT1=
EXTT2=
EXTT3=
EXTT4=
EXTT5=
EXTT6=
EXTT7=
EXTT8=
EXTT9=
EXTT10=
EXTT11=
EXTT12=
EXTT13=
EXTT14=
PLAYORDER=
